<svg xmlns="http://www.w3.org/2000/svg" viewBox="0 0 32 32" shape-rendering="crispEdges">
  <path d="M1 10 L9 8 L13 14 L13 20 L4 18 Z" fill="#5b2a9e"/>
  <path d="M31 10 L23 8 L19 14 L19 20 L28 18 Z" fill="#5b2a9e"/>
  <path d="M2 11 L9 9 L12 14 L5 16 Z" fill="#7c3aed" opacity="0.7"/>
  <path d="M30 11 L23 9 L20 14 L27 16 Z" fill="#7c3aed" opacity="0.7"/>
  <ellipse cx="16" cy="15" rx="6" ry="7" fill="#3a1d6e"/>
  <polygon points="11,9 13,13 9,13" fill="#3a1d6e"/>
  <polygon points="21,9 23,13 19,13" fill="#3a1d6e"/>
  <circle cx="13" cy="15" r="1.6" fill="#ff2e88"/>
  <circle cx="19" cy="15" r="1.6" fill="#ff2e88"/>
  <polygon points="14,20 16,24 18,20" fill="#2a134f"/>
</svg>
